<?xml version="1.0" standalone="no"?>
<svg xmlns:xlink="http://www.w3.org/1999/xlink" id="wave" style="transform:rotate(0deg); transition: 0.3s" viewBox="0 0 1440 120" version="1.1" xmlns="http://www.w3.org/2000/svg"><defs><linearGradient id="sw-gradient-0" x1="0" x2="0" y1="1" y2="0"><stop stop-color="rgba(0, 26, 44, 1)" offset="0%"/><stop stop-color="rgba(0, 26, 44, 1)" offset="100%"/></linearGradient></defs><path style="transform:translate(0, 0px); opacity:1" fill="url(#sw-gradient-0)" d="M0,0L60,14C120,28,240,56,360,66C480,76,600,68,720,54C840,40,960,20,1080,12C1200,4,1320,8,1440,16C1560,24,1680,36,1800,52C1920,68,2040,88,2160,80C2280,72,2400,36,2520,18C2640,0,2760,0,2880,4C3000,8,3120,16,3240,28C3360,40,3480,56,3600,56C3720,56,3840,40,3960,32C4080,24,4200,24,4320,26C4440,28,4560,32,4680,40C4800,48,4920,60,5040,68C5160,76,5280,80,5400,78C5520,76,5640,68,5760,64C5880,60,6000,60,6120,66C6240,72,6360,84,6480,90C6600,96,6720,96,6840,90C6960,84,7080,72,7200,68C7320,64,7440,68,7560,62C7680,56,7800,40,7920,38C8040,36,8160,48,8280,56C8400,64,8520,68,8580,70L8640,72L8640,120L8580,120C8520,120,8400,120,8280,120C8160,120,8040,120,7920,120C7800,120,7680,120,7560,120C7440,120,7320,120,7200,120C7080,120,6960,120,6840,120C6720,120,6600,120,6480,120C6360,120,6240,120,6120,120C6000,120,5880,120,5760,120C5640,120,5520,120,5400,120C5280,120,5160,120,5040,120C4920,120,4800,120,4680,120C4560,120,4440,120,4320,120C4200,120,4080,120,3960,120C3840,120,3720,120,3600,120C3480,120,3360,120,3240,120C3120,120,3000,120,2880,120C2760,120,2640,120,2520,120C2400,120,2280,120,2160,120C2040,120,1920,120,1800,120C1680,120,1560,120,1440,120C1320,120,1200,120,1080,120C960,120,840,120,720,120C600,120,480,120,360,120C240,120,120,120,60,120L0,120Z"/></svg>